<svg width="32" height="32" viewBox="0 0 32 32" fill="none" xmlns="http://www.w3.org/2000/svg">
<path d="M22.6663 2.66675V6.66675M9.33301 2.66675V6.66675" stroke="#5A5A5A" stroke-width="2" stroke-linecap="round" stroke-linejoin="round"/>
<path d="M17.3333 4.66675H14.6667C9.63835 4.66675 7.1242 4.66675 5.56209 6.22884C4 7.79095 4 10.3051 4 15.3334V18.6667C4 23.695 4 26.2093 5.56209 27.7713C7.1242 29.3334 9.63835 29.3334 14.6667 29.3334H17.3333C22.3616 29.3334 24.8759 29.3334 26.4379 27.7713C28 26.2093 28 23.695 28 18.6667V15.3334C28 10.3051 28 7.79095 26.4379 6.22884C24.8759 4.66675 22.3616 4.66675 17.3333 4.66675Z" stroke="#5A5A5A" stroke-width="2" stroke-linecap="round" stroke-linejoin="round"/>
<path d="M4.66699 11.3333H27.3337" stroke="#5A5A5A" stroke-width="2" stroke-linecap="round" stroke-linejoin="round"/>
<path d="M12 20.6667C12 20.6667 14 21.3334 14.6667 23.3334C14.6667 23.3334 17.5687 18.0001 21.3333 16.6667" stroke="#5A5A5A" stroke-width="2" stroke-linecap="round" stroke-linejoin="round"/>
</svg>
