<svg width="21" height="20" viewBox="0 0 21 20" fill="none" xmlns="http://www.w3.org/2000/svg">
<path d="M3 5.83331H5.5" stroke="#2A2A2A" stroke-linecap="round" stroke-linejoin="round"/>
<path d="M3 14.1667H8" stroke="#2A2A2A" stroke-linecap="round" stroke-linejoin="round"/>
<path d="M15.5 14.1667H18" stroke="#2A2A2A" stroke-linecap="round" stroke-linejoin="round"/>
<path d="M13 5.83331H18" stroke="#2A2A2A" stroke-linecap="round" stroke-linejoin="round"/>
<path d="M5.5 5.83331C5.5 5.05675 5.5 4.66846 5.62687 4.36217C5.79602 3.9538 6.12048 3.62934 6.52886 3.46018C6.83515 3.33331 7.22343 3.33331 8 3.33331C8.77657 3.33331 9.16483 3.33331 9.47117 3.46018C9.8795 3.62934 10.204 3.9538 10.3732 4.36217C10.5 4.66846 10.5 5.05675 10.5 5.83331C10.5 6.60988 10.5 6.99816 10.3732 7.30445C10.204 7.71283 9.8795 8.03729 9.47117 8.20645C9.16483 8.33331 8.77657 8.33331 8 8.33331C7.22343 8.33331 6.83515 8.33331 6.52886 8.20645C6.12048 8.03729 5.79602 7.71283 5.62687 7.30445C5.5 6.99816 5.5 6.60988 5.5 5.83331Z" stroke="#2A2A2A"/>
<path d="M10.5 14.1667C10.5 13.3901 10.5 13.0019 10.6268 12.6955C10.796 12.2872 11.1205 11.9627 11.5288 11.7935C11.8352 11.6667 12.2234 11.6667 13 11.6667C13.7766 11.6667 14.1648 11.6667 14.4712 11.7935C14.8795 11.9627 15.204 12.2872 15.3732 12.6955C15.5 13.0019 15.5 13.3901 15.5 14.1667C15.5 14.9433 15.5 15.3315 15.3732 15.6379C15.204 16.0462 14.8795 16.3707 14.4712 16.5399C14.1648 16.6667 13.7766 16.6667 13 16.6667C12.2234 16.6667 11.8352 16.6667 11.5288 16.5399C11.1205 16.3707 10.796 16.0462 10.6268 15.6379C10.5 15.3315 10.5 14.9433 10.5 14.1667Z" stroke="#2A2A2A"/>
</svg>
