<svg width="30" height="30" viewBox="0 0 30 30" fill="none" xmlns="http://www.w3.org/2000/svg">
<path d="M13.8457 3.84375C13.916 3.84375 14.0039 3.87891 14.0801 3.98438C13.7402 3.49805 14.4609 3.70898 14.502 3.24609C14.9121 2.94141 14.7656 2.74219 14.8828 2.73047L15.0117 2.625C14.7598 2.71875 14.6719 2.73633 14.6016 2.73633C14.584 2.73633 14.5664 2.73633 14.5488 2.73633C14.5312 2.73633 14.5078 2.73633 14.4844 2.73633C14.3965 2.73633 14.25 2.75391 13.9043 2.85938C13.1133 2.91797 12.5449 3.77344 12.2754 3.79688C12 3.94336 12.0117 3.97266 12.0762 3.97266C12.0938 3.97266 12.1172 3.9668 12.1406 3.9668C12.1641 3.9668 12.1816 3.96094 12.1992 3.96094C12.2637 3.96094 12.2461 3.99023 11.8711 4.16602C11.959 4.18945 11.2148 4.51758 11.209 5.0332C11.1855 5.23242 11.2676 5.36719 11.4023 5.36719C11.5195 5.36719 11.666 5.2793 11.8242 5.05664C12.3516 4.44727 13.4648 4.38867 13.9453 4.01953C13.6465 3.99609 13.7051 3.84375 13.8457 3.84375ZM11.168 4.04883C11.1152 4.04883 11.1855 3.98438 11.2617 3.91992C11.3437 3.85547 11.4375 3.79102 11.4375 3.79102C11.4375 3.79102 11.4375 3.79102 11.4316 3.79688C11.748 3.67383 11.5547 3.64453 11.7246 3.5625C11.7188 3.5625 11.7187 3.5625 11.7129 3.5625C11.6777 3.5625 11.7422 3.51562 11.8008 3.46289C11.8594 3.41602 11.9121 3.36328 11.8594 3.36328C11.8301 3.36328 11.7539 3.38086 11.625 3.43359C11.666 3.375 11.8242 3.33398 12.0469 3.21094C11.7246 3.31641 11.4727 3.38086 11.4434 3.38086C11.4199 3.38086 11.5547 3.33398 11.959 3.21094C11.9766 3.21094 11.9941 3.2168 12.0059 3.2168C12.0469 3.2168 12.0645 3.20508 12.0586 3.19336C12.0527 3.18164 12.0293 3.17578 11.9883 3.17578C11.4082 3.22266 10.9746 3.58594 11.1035 3.63281C11.1797 3.60938 11.2324 3.59766 11.2676 3.59766C11.3438 3.59766 11.3086 3.66211 11.1562 3.75586C11.2266 3.91992 9.98438 4.3418 9.84375 4.49414C9.91406 4.45312 9.96094 4.44141 9.98438 4.44141C10.0781 4.44141 9.95508 4.62305 9.83203 4.71094C9.9082 4.78125 9.9668 4.80469 10.0137 4.80469C10.1367 4.80469 10.1895 4.63477 10.2949 4.58203C10.3184 4.62891 10.3418 4.65234 10.3711 4.65234C10.4707 4.65234 10.5938 4.40625 10.6934 4.27734C10.7227 4.30664 10.7578 4.33008 10.8047 4.33008C10.8984 4.33008 11.0391 4.25391 11.2617 4.03711C11.2148 4.04297 11.1797 4.04883 11.168 4.04883ZM9.82031 5.12695C9.60938 5.25586 9.49805 5.30859 9.45117 5.30859C9.36328 5.30859 9.48047 5.14453 9.58594 4.97461C9.69141 4.81055 9.78516 4.64648 9.65039 4.64648C9.58594 4.64648 9.46875 4.68164 9.28125 4.77539C8.77148 5.11523 7.91016 6.05273 7.5293 6.05273C7.51758 6.05273 7.50586 6.05273 7.49414 6.05273C8.10938 5.60156 7.92773 4.7168 8.78906 4.48828C9.63867 4.00195 10.2188 4.1543 10.9746 3.59766C10.752 3.70898 10.4238 3.83203 10.3477 3.83203C10.3008 3.83203 10.3711 3.77344 10.6758 3.62695C10.6465 3.63281 10.623 3.63867 10.6055 3.63867C10.4004 3.63867 11.9531 3.08203 12.0293 3.07031C11.3906 3.1582 10.3594 3.69141 10.2187 3.69141C10.2012 3.69141 10.2012 3.68555 10.2012 3.67383C10.2246 3.65625 10.2246 3.64453 10.2012 3.64453C10.125 3.64453 9.80859 3.75 9.48633 3.85547C9.16992 3.96094 8.84766 4.07227 8.77734 4.07227C8.75391 4.07227 8.75391 4.06055 8.78906 4.03711C6.02344 5.60742 3.71484 8.25586 2.99414 11.3965C3.29297 12.082 3.08789 13.3887 3.58008 13.7695C4.14258 14.2441 3.09961 15.6211 3.375 16.4707C3.65625 18.0059 4.86914 19.0547 4.99805 20.625C5.2207 21.7031 6.03516 23.0215 6.375 23.707C6.63281 23.9648 7.3418 24.709 7.46484 24.709C7.51172 24.709 7.48242 24.5977 7.29492 24.2988C7.17773 23.9648 6.49805 23.0918 6.82617 23.0918C6.84375 23.0918 6.86133 23.0918 6.88477 23.0977C6.48047 22.6875 7.78125 22.7988 6.87305 22.2422C6.76758 22.1133 6.74414 22.0723 6.76758 22.0723C6.79688 22.0723 6.87891 22.1191 6.97266 22.166C7.07227 22.2129 7.18945 22.2598 7.2832 22.2598C7.42969 22.2598 7.5293 22.1602 7.4707 21.7969C7.49414 21.8086 7.51758 21.8086 7.53516 21.8086C7.6875 21.8086 7.63477 21.5098 7.64648 21.2109C7.6582 20.9121 7.73438 20.6133 8.14453 20.6133C8.19141 20.6133 8.24414 20.6191 8.29688 20.625C9.24609 20.1094 8.41992 18.6855 9.50977 18.1641C9.46875 16.9805 7.88086 16.9219 7.2832 16.4414C7.18359 16.5 7.08984 16.5176 6.99609 16.5176C6.89063 16.5176 6.79687 16.4941 6.71484 16.4648C6.63281 16.4414 6.55664 16.4121 6.50391 16.4121C6.49219 16.4121 6.48047 16.4121 6.46875 16.418C7.48828 16.1484 6.74414 14.7305 5.90039 14.7305C5.88281 14.7305 5.85937 14.7305 5.8418 14.7305C5.77734 14.1152 5.46094 14.3496 5.42578 13.8398C5.37305 13.8691 5.32031 13.8809 5.26758 13.8809C5.12695 13.8809 4.99805 13.7813 4.88672 13.6875C4.77539 13.5879 4.68164 13.4941 4.59961 13.4941C4.53516 13.4941 4.47656 13.5586 4.42383 13.7461C4.48242 13.459 4.46484 13.3652 4.40625 13.3652C4.34766 13.3652 4.24219 13.4648 4.125 13.5645C4.01367 13.6641 3.88477 13.7637 3.78516 13.7637C3.77344 13.7637 3.76758 13.7637 3.75586 13.7637C3.07031 13.2773 3.76172 12.416 3.39844 11.7539C3.63281 11.502 3.72656 11.0742 3.62109 11.0742C3.56836 11.0742 3.46289 11.1797 3.29883 11.4668C3.06445 10.8691 3.68555 9.51562 4.21289 9.43945C4.23047 9.43945 4.24219 9.43359 4.25977 9.43359C4.35352 9.43359 4.44727 9.48047 4.5293 9.58008C4.57617 9.85547 4.45898 10.4355 4.50586 10.4355C4.5293 10.4355 4.57617 10.3184 4.69336 10.0137C4.8457 9.31641 5.91211 8.8125 6.02344 8.38477C6.0293 8.39062 6.0293 8.39062 6.03516 8.39062C6.1582 8.39062 6.94922 7.69336 7.29492 7.61719C7.42969 7.48242 7.52344 7.43555 7.59375 7.43555C7.66992 7.43555 7.71094 7.49414 7.74023 7.54688C7.76953 7.60547 7.79297 7.6582 7.82227 7.6582C7.8457 7.6582 7.875 7.62305 7.92773 7.52344C7.74609 7.16602 8.21484 6.82617 8.08594 6.82617C8.03906 6.82617 7.89844 6.87305 7.61133 6.99023C7.56445 7.01367 7.54102 7.01953 7.5293 7.01953C7.49414 7.01953 7.63477 6.92578 7.83984 6.83203C8.04492 6.73828 8.30273 6.64453 8.51953 6.64453C8.625 6.64453 8.71875 6.66797 8.78906 6.72656C9.69727 6.50977 9.19922 6.21094 9.24609 6.21094C9.24609 6.21094 9.25195 6.21094 9.25781 6.21094C9.51562 6.05859 9.43945 5.48438 9.82031 5.12695ZM5.75977 7.52344C5.74805 7.52344 5.80078 7.44727 5.97656 7.23047C6.33984 6.96094 6.63281 6.7793 6.29883 6.60352C6.44531 6.53906 6.58594 6.46289 6.7207 6.38086C6.71484 6.66797 6.47461 7.36523 6.3457 7.36523C6.31641 7.36523 6.28711 7.32422 6.27539 7.23633C6.35156 7.10156 6.35742 7.04883 6.32812 7.04883C6.28125 7.04883 6.14648 7.16602 6.01758 7.28906C5.88867 7.40039 5.77148 7.52344 5.75977 7.52344ZM6.09375 7.68164C5.93555 7.68164 5.96484 7.58203 6.45117 7.48242C6.66211 7.45312 6.49805 7.46484 6.75 7.40625C6.50391 7.60547 6.22852 7.68164 6.09375 7.68164ZM15.2051 7.08984C15.2754 7.07812 15.3281 7.07813 15.3691 7.07813C15.5391 7.07813 15.4629 7.14844 15.3633 7.21875C15.2637 7.28906 15.1406 7.35938 15.2109 7.35938C15.252 7.35938 15.3633 7.33594 15.5918 7.27148C16.7461 7.18945 15.1406 6.21094 15.3984 5.88281L15.3281 5.85938C14.8535 6.46289 15.6445 6.47461 15.2051 7.08984ZM14.7246 7.11328C14.8066 7.11328 14.9121 7.01953 15.0234 6.75586C15.1758 6.57422 15.1113 6.55078 14.9473 6.46289C14.4961 6.58008 14.5371 7.11328 14.7246 7.11328ZM18.7676 8.9707C18.75 8.9707 18.7383 8.97656 18.7266 8.98242C18.7734 8.99414 18.8203 9.00586 18.8672 9.00586C18.8203 8.98242 18.791 8.9707 18.7676 8.9707ZM26.6367 10.4297C26.7363 10.6465 26.7891 10.7344 26.7949 10.7344C26.8359 10.7344 26.0566 8.83594 25.7344 8.49609C24.0527 5.73047 21.2871 3.61523 18.1348 2.82422H18.1289C18.0469 2.82422 18.1406 2.86523 18.252 2.90625C18.3633 2.94727 18.498 2.98828 18.498 2.98828C18.498 2.98828 18.4102 2.95898 18.1406 2.88281C17.8418 2.79492 17.5371 2.73047 17.2266 2.70703C17.1738 2.72461 18.5098 3.25195 19.4062 3.52734C19.1074 3.43359 18.7969 3.35156 18.7207 3.35156C18.668 3.35156 18.7207 3.38672 18.9375 3.48047C18.6738 3.4043 18.5625 3.36914 18.5508 3.36914C18.5332 3.36914 18.9023 3.49219 19.248 3.61523C19.5996 3.73828 19.9336 3.86133 19.8398 3.86133C19.8164 3.86133 19.752 3.84961 19.6523 3.83203C19.9512 3.99609 20.0566 4.06055 20.0391 4.06055C20.0098 4.06055 19.6406 3.88477 19.2598 3.70898C18.8848 3.5332 18.5039 3.35742 18.4512 3.35742C18.4219 3.35742 18.498 3.41602 18.7559 3.56836C19.1074 3.7207 19.459 3.87305 19.3594 3.87305C19.3125 3.87305 19.1777 3.84375 18.9141 3.76758C19.5 4.06641 18.498 3.94922 18.8379 4.35352C18.6504 4.17773 18.5742 4.11914 18.5566 4.11914C18.5391 4.11914 18.5859 4.18945 18.6328 4.25977C18.6797 4.33008 18.7148 4.40039 18.6738 4.40039C18.668 4.40039 18.668 4.40039 18.6621 4.40039C19.0723 4.8457 18.375 4.44727 18.873 4.8457C18.498 4.67578 17.8594 4.39453 18.1465 4.39453C18.2168 4.39453 18.3516 4.41211 18.5625 4.45898C18.1816 4.01367 17.1035 3.99609 17.0801 3.94336C16.8105 3.96094 16.8047 4.16602 16.8516 4.54102C16.8457 5.13281 16.2656 5.14453 16.3418 5.48438C16.3418 5.47852 16.3477 5.47852 16.3477 5.47852C16.3594 5.47852 16.3652 5.5957 16.4004 5.71875C16.4414 5.83594 16.5117 5.95898 16.6641 5.95898C16.7461 5.95898 16.8516 5.92383 16.9805 5.83594C17.1621 6.16406 17.3262 6.28125 17.4551 6.28125C17.6484 6.28125 17.7656 6.01758 17.7539 5.77734C17.543 5.66016 17.2676 4.6875 17.5723 4.6875C17.6191 4.6875 17.6777 4.71094 17.7539 4.76367C17.2793 5.92969 19.6289 5.15039 18.2988 5.68359C18.5977 6.07617 18.1113 6.05859 18.252 6.5332C18.0234 6.59766 17.7715 6.65625 17.5488 6.65625C17.2207 6.65625 16.9688 6.51563 16.998 6.02344C16.5879 6.24023 17.4082 6.97266 16.5938 6.97266H16.5469C16.1543 7.69336 14.6836 7.44727 15.8379 8.20898C15.9023 8.54297 15.6914 8.60156 15.4219 8.60156C15.3516 8.60156 15.2754 8.5957 15.1992 8.58984C15.123 8.58398 15.0469 8.58398 14.9766 8.58398C14.6719 8.58398 14.4551 8.66016 14.6426 9.13477C14.5078 9.62695 14.8242 9.84375 15.2109 9.84375C15.6797 9.84375 16.2539 9.53906 16.2949 9.03516C16.5469 8.6543 16.8691 8.49609 17.2031 8.49609C17.7305 8.49609 18.2871 8.89453 18.6504 9.38672C18.6797 9.43359 18.7031 9.45117 18.7148 9.45117C18.7441 9.45117 18.7148 9.33398 18.7031 9.2168C18.6914 9.12305 18.6914 9.0293 18.7266 9C18.2051 8.85352 17.8066 8.2207 17.9824 8.2207C18.041 8.2207 18.1641 8.29101 18.3633 8.47852C18.375 8.47852 18.3867 8.47852 18.3926 8.47852C18.7207 8.47852 18.9785 8.73633 19.1777 8.99414C19.3828 9.25195 19.5352 9.50977 19.6699 9.50977C19.7227 9.50977 19.7754 9.46289 19.8223 9.35742C19.7988 9.32226 19.7402 9.22266 19.7109 9.12305C19.6758 9 19.6758 8.87695 19.834 8.87695C19.8984 8.87695 19.9863 8.90039 20.1094 8.94727C20.5078 8.8418 19.8574 7.80469 20.3848 7.80469C20.4375 7.80469 20.502 7.81641 20.584 7.83984C20.5781 8.02148 20.6602 8.08594 20.7363 8.08594C20.8887 8.08594 21.041 7.86914 20.6719 7.80469C20.8125 7.66992 20.8945 7.61719 20.9531 7.61719C21.1582 7.61719 20.9941 8.29688 21.7031 8.29688C21.9434 8.86523 19.6172 8.33789 20.3613 9.42773C20.5312 9.55078 20.7422 9.57422 20.9473 9.57422C21.0117 9.57422 21.0703 9.57422 21.1289 9.56836C21.1875 9.56836 21.2461 9.5625 21.2988 9.5625C21.6621 9.5625 21.9199 9.65039 21.7617 10.4004C21.5684 10.541 21.3516 10.5879 21.1289 10.5879C20.9297 10.5879 20.7305 10.5527 20.5371 10.5176C20.3438 10.4824 20.1563 10.4473 19.9863 10.4473C19.7227 10.4473 19.5117 10.5352 19.3828 10.8398C18.6973 10.5586 17.7949 10.5469 17.8828 9.69727C16.6875 9.86719 15.4395 9.7793 14.5605 10.5117C14.5078 11.584 12.668 11.9297 13.1133 13.1484C12.5801 14.2734 13.7578 15.8496 14.959 15.8496C15 15.8496 15.0469 15.8496 15.0879 15.8437C15.7441 15.8379 16.4062 15.5449 16.9863 15.5449C17.2852 15.5449 17.5547 15.6211 17.7891 15.8555C17.8418 15.8496 17.8887 15.8437 17.9297 15.8437C18.8262 15.8437 17.6426 17.2676 18.7148 17.5078C19.6875 18.5156 18.1172 19.5527 18.8848 20.5195C18.9668 21.2754 19.3418 21.9082 19.3418 22.6465C19.4414 22.6582 19.5352 22.6641 19.6348 22.6641C20.8711 22.6641 21.6445 21.5859 22.3711 20.7715C22.1484 19.5527 24.0996 19.3125 23.4316 17.9473C23.1211 16.4531 24.9023 15.5684 24.8027 14.0742C24.8203 13.8633 24.7617 13.7988 24.6738 13.7988C24.5859 13.7988 24.457 13.8633 24.334 13.9219C24.2051 13.9863 24.0645 14.0449 23.9531 14.0449C23.8066 14.0449 23.6953 13.9453 23.6836 13.6172C22.8223 12.8145 22.4297 11.7246 21.627 10.8398C22.6699 11.3438 23.2617 12.4805 23.7422 13.5117C23.7832 13.5234 23.8242 13.5293 23.8711 13.5293C24.7207 13.5293 25.9043 11.4961 24.6152 11.0039C24.5449 11.1973 24.4512 11.2676 24.3398 11.2676C24.1465 11.2676 23.9238 11.0332 23.7656 10.8047C23.6074 10.5703 23.5254 10.3359 23.6133 10.3359C23.6719 10.3359 23.8008 10.4297 24.0234 10.6758C24.2754 10.834 24.5215 10.875 24.7793 10.875C25.0312 10.875 25.2891 10.834 25.5586 10.8105C25.8984 10.9453 26.0449 11.3789 26.1504 11.3789C26.168 11.3789 26.1914 11.3613 26.209 11.3203C26.4785 11.9648 26.7891 13.1133 27.0703 13.4238C26.9238 12.4395 26.8887 11.3965 26.6367 10.4297ZM23.3672 9.07617C22.7051 8.90625 22.4883 8.08594 21.9668 7.61133C21.9609 7.48242 22.1543 7.50586 22.1074 7.28906C22.8105 7.50586 22.582 7.72266 22.5176 7.76367C22.7754 8.19141 23.4961 8.48438 23.3672 9.07617ZM14.2676 4.61719C13.6289 4.80469 13.541 4.59961 13.6523 4.99219C13.6992 5.02734 13.7871 5.03906 13.875 5.03906C14.1855 5.04492 14.6074 4.86328 14.2676 4.61719ZM23.6484 20.7598C24.4863 20.0508 24.5918 19.207 24.6328 18.3516C24.2578 19.084 23.1445 19.8926 23.6484 20.7598ZM19.834 9.33398C19.8281 9.33984 19.8281 9.33984 19.8281 9.3457C19.834 9.35742 19.8398 9.35742 19.8398 9.35742C19.8398 9.35742 19.8398 9.35156 19.834 9.33398ZM15 0C6.71484 0 0 6.71484 0 15C0 23.2852 6.71484 30 15 30C23.2852 30 30 23.2852 30 15C30 6.71484 23.2852 0 15 0ZM15 28.8457C7.35352 28.8457 1.1543 22.6465 1.1543 15C1.1543 7.35352 7.35352 1.1543 15 1.1543C22.6465 1.1543 28.8457 7.35352 28.8457 15C28.8457 22.6465 22.6465 28.8457 15 28.8457Z" fill="#2A2A2A"/>
</svg>
