<svg width="40" height="40" viewBox="0 0 40 40" fill="none" xmlns="http://www.w3.org/2000/svg">
<path d="M38.4375 20C38.4458 22.9088 37.5019 25.7404 35.75 28.0625C35.6761 28.161 35.5836 28.244 35.4776 28.3067C35.3717 28.3694 35.2545 28.4107 35.1326 28.4281C35.0107 28.4455 34.8866 28.4387 34.7673 28.4082C34.6481 28.3776 34.536 28.3239 34.4375 28.25C34.339 28.1761 34.256 28.0836 34.1933 27.9776C34.1306 27.8717 34.0893 27.7544 34.0719 27.6326C34.0545 27.5107 34.0613 27.3866 34.0918 27.2673C34.1224 27.1481 34.1761 27.036 34.25 26.9375C35.3493 25.4718 36.0845 23.7659 36.3951 21.9603C36.7057 20.1547 36.5828 18.3012 36.0366 16.5524C35.4903 14.8037 34.5363 13.2097 33.2531 11.902C31.97 10.5943 30.3945 9.61019 28.6564 9.03083C26.9183 8.45147 25.0674 8.29343 23.2563 8.56972C21.4451 8.84602 19.7256 9.54875 18.2393 10.62C16.753 11.6912 15.5426 13.1003 14.7077 14.7312C13.8729 16.362 13.4375 18.1679 13.4375 20C13.4375 20.2486 13.3387 20.4871 13.1629 20.6629C12.9871 20.8387 12.7486 20.9375 12.5 20.9375C12.2514 20.9375 12.0129 20.8387 11.8371 20.6629C11.6613 20.4871 11.5625 20.2486 11.5625 20C11.5613 18.6413 11.7673 17.2903 12.1734 15.9937C11.867 15.957 11.5586 15.9382 11.25 15.9375C9.178 15.9375 7.19086 16.7606 5.72573 18.2257C4.2606 19.6908 3.4375 21.678 3.4375 23.75C3.4375 25.822 4.2606 27.8091 5.72573 29.2743C7.19086 30.7394 9.178 31.5625 11.25 31.5625H15C15.2486 31.5625 15.4871 31.6613 15.6629 31.8371C15.8387 32.0129 15.9375 32.2513 15.9375 32.5C15.9375 32.7486 15.8387 32.9871 15.6629 33.1629C15.4871 33.3387 15.2486 33.4375 15 33.4375H11.25C9.90917 33.437 8.58304 33.1582 7.35553 32.6188C6.12802 32.0793 5.02587 31.2908 4.11883 30.3034C3.21178 29.3159 2.5196 28.1509 2.0861 26.8821C1.65259 25.6133 1.48719 24.2683 1.60037 22.9322C1.71355 21.5962 2.10285 20.2982 2.74362 19.1204C3.38439 17.9426 4.26269 16.9106 5.32292 16.0898C6.38315 15.269 7.60222 14.6772 8.90299 14.3519C10.2038 14.0266 11.5579 13.9749 12.8797 14.2C14.1952 11.452 16.4055 9.23255 19.1481 7.90575C21.8907 6.57895 25.0027 6.22353 27.9738 6.89779C30.945 7.57205 33.5988 9.23595 35.5 11.6166C37.4012 13.9972 38.437 16.9533 38.4375 20ZM24.4125 19.3375C24.2367 19.1619 23.9984 19.0633 23.75 19.0633C23.5016 19.0633 23.2633 19.1619 23.0875 19.3375L18.0875 24.3375C17.9219 24.5152 17.8317 24.7503 17.836 24.9931C17.8403 25.236 17.9387 25.4677 18.1105 25.6395C18.2822 25.8113 18.514 25.9097 18.7568 25.914C18.9997 25.9182 19.2348 25.8281 19.4125 25.6625L22.8125 22.264V32.5C22.8125 32.7486 22.9113 32.9871 23.0871 33.1629C23.2629 33.3387 23.5014 33.4375 23.75 33.4375C23.9986 33.4375 24.2371 33.3387 24.4129 33.1629C24.5887 32.9871 24.6875 32.7486 24.6875 32.5V22.264L28.0875 25.6625C28.2652 25.8281 28.5003 25.9182 28.7432 25.914C28.986 25.9097 29.2178 25.8113 29.3895 25.6395C29.5613 25.4677 29.6597 25.236 29.664 24.9931C29.6683 24.7503 29.5781 24.5152 29.4125 24.3375L24.4125 19.3375Z" fill="#2A2A2A"/>
</svg>
