<svg width="32" height="32" viewBox="0 0 32 32" fill="none" xmlns="http://www.w3.org/2000/svg">
<path d="M18.8945 27.8539C24.4718 27.4833 28.9145 22.9775 29.2801 17.3211C29.3515 16.2142 29.3515 15.0678 29.2801 13.9609C28.9145 8.30443 24.4718 3.79876 18.8945 3.42801C16.9917 3.30153 15.0051 3.3018 13.1062 3.42801C7.52884 3.79876 3.0862 8.30443 2.72064 13.9609C2.64911 15.0678 2.64911 16.2142 2.72064 17.3211C2.85379 19.3813 3.7649 21.2887 4.83754 22.8994C5.46034 24.027 5.04931 25.4343 4.4006 26.6637C3.93287 27.5501 3.699 27.9933 3.88678 28.3134C4.07456 28.6335 4.494 28.6438 5.3329 28.6642C6.99188 28.7046 8.11056 28.2342 8.99856 27.5794C9.50219 27.2081 9.75402 27.0223 9.92758 27.001C10.1011 26.9797 10.4427 27.1203 11.1257 27.4017C11.7395 27.6545 12.4523 27.8105 13.1062 27.8539C15.0051 27.9802 16.9917 27.9805 18.8945 27.8539Z" stroke="#5A5A5A" stroke-width="2" stroke-linejoin="round"/>
<path d="M15.9943 16H16.0063M21.3216 16H21.3336M10.667 16H10.679" stroke="#5A5A5A" stroke-width="2.66667" stroke-linecap="round" stroke-linejoin="round"/>
</svg>
