<svg width="16" height="16" viewBox="0 0 16 16" fill="none" xmlns="http://www.w3.org/2000/svg">
<path d="M12 4.6665C12.5163 4.77356 12.9059 4.95223 13.2189 5.25043C14 5.99438 14 7.19177 14 9.5865C14 11.9812 14 13.1786 13.2189 13.9226C12.4379 14.6665 11.1808 14.6665 8.66667 14.6665H7.33333C4.81917 14.6665 3.5621 14.6665 2.78105 13.9226C2 13.1786 2 11.9812 2 9.5865C2 7.19177 2 5.99438 2.78105 5.25043C3.09412 4.95223 3.48367 4.77356 4 4.6665" stroke="#2A2A2A" stroke-linecap="round"/>
<path d="M8.01687 1.33385L8 9.3335M8.01687 1.33385C7.90847 1.32936 7.7994 1.36811 7.7022 1.45011C7.09793 1.96021 6 3.28607 6 3.28607M8.01687 1.33385C8.11407 1.33788 8.2108 1.37667 8.29787 1.45022C8.90207 1.96041 10 3.28607 10 3.28607" stroke="#2A2A2A" stroke-linecap="round" stroke-linejoin="round"/>
</svg>
