<svg width="32" height="32" viewBox="0 0 32 32" fill="none" xmlns="http://www.w3.org/2000/svg">
<path d="M3.2861 12.4584C2.95472 12.4584 2.65232 12.1898 2.66754 11.8387C2.75677 9.78257 3.00674 8.44405 3.7071 7.3852C4.11004 6.77603 4.61053 6.2462 5.18597 5.81965C6.74133 4.66675 8.93552 4.66675 13.3239 4.66675H18.6769C23.0651 4.66675 25.2594 4.66675 26.8147 5.81965C27.3902 6.2462 27.8906 6.77603 28.2935 7.3852C28.9939 8.44393 29.2439 9.78228 29.3331 11.838C29.3483 12.1895 29.0455 12.4584 28.7138 12.4584C26.8661 12.4584 25.3682 14.0441 25.3682 16.0001C25.3682 17.9561 26.8661 19.5417 28.7138 19.5417C29.0455 19.5417 29.3483 19.8106 29.3331 20.1622C29.2439 22.2179 28.9939 23.5562 28.2935 24.615C27.8906 25.2241 27.3902 25.7539 26.8147 26.1805C25.2594 27.3334 23.0651 27.3334 18.6769 27.3334H13.3239C8.93552 27.3334 6.74133 27.3334 5.18597 26.1805C4.61053 25.7539 4.11004 25.2241 3.7071 24.615C3.00674 23.5561 2.75677 22.2175 2.66754 20.1615C2.65232 19.8103 2.95472 19.5417 3.2861 19.5417C5.13382 19.5417 6.63169 17.9561 6.63169 16.0001C6.63169 14.0441 5.13382 12.4584 3.2861 12.4584Z" stroke="#5A5A5A" stroke-width="2" stroke-linejoin="round"/>
</svg>
