<svg width="12" height="12" viewBox="0 0 12 12" fill="none" xmlns="http://www.w3.org/2000/svg">
<path d="M4.25 1V5.25M7.75 1V5.25" stroke="#2A2A2A" stroke-linecap="round"/>
<path d="M8.9581 1.00583H3.0419C2.58643 1.00583 1.98348 0.927122 1.67199 1.34801C1.5 1.5804 1.5 1.91667 1.5 2.58922C1.5 3.16262 1.5 3.44932 1.61597 3.69087C1.81404 4.10342 2.25689 4.28263 2.63646 4.47752L4.49065 5.42955C5.2313 5.80985 5.60165 6 6 6C6.39835 6 6.7687 5.80985 7.50935 5.42955L9.36355 4.47752C9.7431 4.28263 10.186 4.10342 10.3841 3.69087C10.5 3.44932 10.5 3.16262 10.5 2.58922C10.5 1.91667 10.5 1.5804 10.328 1.34801C10.0165 0.927122 9.41355 1.00583 8.9581 1.00583Z" stroke="#2A2A2A"/>
<path d="M5.2646 6.8188C5.6239 6.60625 5.80355 6.5 6 6.5C6.19645 6.5 6.3761 6.60625 6.7354 6.8188L7.2354 7.1146C7.60835 7.3352 7.7948 7.4455 7.8974 7.63C8 7.81445 8 8.03945 8 8.4895V9.0105C8 9.46055 8 9.68555 7.8974 9.87C7.7948 10.0545 7.60835 10.1648 7.2354 10.3854L6.7354 10.6812C6.3761 10.8938 6.19645 11 6 11C5.80355 11 5.6239 10.8938 5.2646 10.6812L4.76461 10.3854C4.39166 10.1648 4.20518 10.0545 4.10259 9.87C4 9.68555 4 9.46055 4 9.0105V8.4895C4 8.03945 4 7.81445 4.10259 7.63C4.20518 7.4455 4.39166 7.3352 4.76461 7.1146L5.2646 6.8188Z" stroke="#2A2A2A" stroke-linejoin="round"/>
</svg>
